<mxfile host="app.diagrams.net" modified="2024-03-14T03:08:30.436Z" agent="Mozilla/5.0 (Windows NT 10.0; Win64; x64) AppleWebKit/537.36 (KHTML, like Gecko) Chrome/122.0.0.0 Safari/537.36" etag="NhRuAggRKt670Vq0iFwa" version="24.0.5" type="github" pages="3">
  <diagram name="Page-1" id="H7_URHveais7Jz8QDmY0">
    <mxGraphModel dx="826" dy="557" grid="1" gridSize="10" guides="1" tooltips="1" connect="1" arrows="1" fold="1" page="1" pageScale="1" pageWidth="827" pageHeight="1169" math="0" shadow="0">
      <root>
        <mxCell id="0" />
        <mxCell id="1" parent="0" />
        <mxCell id="8iujGPbMvRqzLhgsaXlu-1" value="" style="group" parent="1" vertex="1" connectable="0">
          <mxGeometry x="30" y="200" width="780" height="240" as="geometry" />
        </mxCell>
        <mxCell id="8iujGPbMvRqzLhgsaXlu-2" value="" style="rounded=1;whiteSpace=wrap;html=1;shadow=0;glass=0;arcSize=5;strokeColor=#CCCCCC;strokeWidth=1;" parent="8iujGPbMvRqzLhgsaXlu-1" vertex="1">
          <mxGeometry width="780" height="240" as="geometry" />
        </mxCell>
        <mxCell id="8iujGPbMvRqzLhgsaXlu-3" value="&lt;p style=&quot;line-height: 50%;&quot;&gt;大&lt;/p&gt;&lt;p style=&quot;line-height: 50%;&quot;&gt;模&lt;/p&gt;&lt;p style=&quot;line-height: 50%;&quot;&gt;&lt;span style=&quot;background-color: initial;&quot;&gt;型&lt;/span&gt;&lt;/p&gt;&lt;p style=&quot;line-height: 50%;&quot;&gt;&lt;span style=&quot;background-color: initial;&quot;&gt;层&lt;/span&gt;&lt;/p&gt;" style="rounded=1;whiteSpace=wrap;html=1;shadow=0;glass=0;sketch=0;fillColor=#D6ECFB;strokeColor=none;verticalAlign=middle;horizontal=1;" parent="8iujGPbMvRqzLhgsaXlu-1" vertex="1">
          <mxGeometry x="5" y="5" width="40" height="230" as="geometry" />
        </mxCell>
        <mxCell id="8iujGPbMvRqzLhgsaXlu-4" value="" style="rounded=1;whiteSpace=wrap;html=1;shadow=0;glass=0;labelBackgroundColor=#ffffff;sketch=0;strokeColor=#CCCCCC;strokeWidth=1;fillColor=none;arcSize=7;" parent="8iujGPbMvRqzLhgsaXlu-1" vertex="1">
          <mxGeometry x="620" y="110" width="150" height="120" as="geometry" />
        </mxCell>
        <mxCell id="8iujGPbMvRqzLhgsaXlu-5" value="&lt;font style=&quot;font-size: 10px;&quot;&gt;Model Hubs&lt;/font&gt;" style="text;html=1;strokeColor=none;fillColor=none;align=center;verticalAlign=middle;whiteSpace=wrap;rounded=0;" parent="8iujGPbMvRqzLhgsaXlu-1" vertex="1">
          <mxGeometry x="664.41" y="115" width="61.18" height="11" as="geometry" />
        </mxCell>
        <mxCell id="8iujGPbMvRqzLhgsaXlu-6" value="Model Scope" style="rounded=1;whiteSpace=wrap;html=1;shadow=0;glass=0;labelBackgroundColor=#ffffff;sketch=0;strokeColor=#CCCCCC;strokeWidth=1;fontSize=10;fillColor=none;arcSize=6;" parent="8iujGPbMvRqzLhgsaXlu-1" vertex="1">
          <mxGeometry x="660" y="131" width="70" height="40" as="geometry" />
        </mxCell>
        <mxCell id="8iujGPbMvRqzLhgsaXlu-7" value="Hugging Face" style="rounded=1;whiteSpace=wrap;html=1;shadow=0;glass=0;labelBackgroundColor=#ffffff;sketch=0;strokeColor=#CCCCCC;strokeWidth=1;fontSize=10;fillColor=none;arcSize=6;" parent="8iujGPbMvRqzLhgsaXlu-1" vertex="1">
          <mxGeometry x="660" y="180" width="70" height="40" as="geometry" />
        </mxCell>
        <mxCell id="8iujGPbMvRqzLhgsaXlu-8" value="" style="group" parent="8iujGPbMvRqzLhgsaXlu-1" vertex="1" connectable="0">
          <mxGeometry x="450" y="110" width="160" height="120" as="geometry" />
        </mxCell>
        <mxCell id="8iujGPbMvRqzLhgsaXlu-9" value="" style="rounded=1;whiteSpace=wrap;html=1;shadow=0;glass=0;labelBackgroundColor=#ffffff;sketch=0;strokeColor=#CCCCCC;strokeWidth=1;fillColor=none;arcSize=11;" parent="8iujGPbMvRqzLhgsaXlu-8" vertex="1">
          <mxGeometry width="160" height="120" as="geometry" />
        </mxCell>
        <mxCell id="8iujGPbMvRqzLhgsaXlu-10" value="&lt;span style=&quot;font-size: 10px;&quot;&gt;Embedding &amp;amp; Reranking 模型&lt;/span&gt;" style="text;html=1;strokeColor=none;fillColor=none;align=center;verticalAlign=middle;whiteSpace=wrap;rounded=0;" parent="8iujGPbMvRqzLhgsaXlu-8" vertex="1">
          <mxGeometry x="10" y="5" width="138.95" height="10" as="geometry" />
        </mxCell>
        <mxCell id="8iujGPbMvRqzLhgsaXlu-11" value="BC&lt;br&gt;Embedding" style="rounded=1;whiteSpace=wrap;html=1;shadow=0;glass=0;labelBackgroundColor=#ffffff;sketch=0;strokeColor=#CCCCCC;strokeWidth=1;fontSize=10;fillColor=none;arcSize=6;" parent="8iujGPbMvRqzLhgsaXlu-8" vertex="1">
          <mxGeometry x="44.47000000000003" y="25" width="69.99999999999999" height="40" as="geometry" />
        </mxCell>
        <mxCell id="8iujGPbMvRqzLhgsaXlu-12" value="BGE" style="rounded=1;whiteSpace=wrap;html=1;shadow=0;glass=0;labelBackgroundColor=#ffffff;sketch=0;strokeColor=#CCCCCC;strokeWidth=1;fontSize=10;fillColor=none;arcSize=6;" parent="8iujGPbMvRqzLhgsaXlu-8" vertex="1">
          <mxGeometry x="44.47000000000003" y="75" width="69.99999999999999" height="40" as="geometry" />
        </mxCell>
        <mxCell id="8iujGPbMvRqzLhgsaXlu-13" value="" style="group" parent="8iujGPbMvRqzLhgsaXlu-1" vertex="1" connectable="0">
          <mxGeometry x="60" y="110" width="370" height="120" as="geometry" />
        </mxCell>
        <mxCell id="8iujGPbMvRqzLhgsaXlu-14" value="" style="rounded=1;whiteSpace=wrap;html=1;shadow=0;glass=0;labelBackgroundColor=#ffffff;sketch=0;strokeColor=#CCCCCC;strokeWidth=1;fillColor=none;arcSize=5;" parent="8iujGPbMvRqzLhgsaXlu-13" vertex="1">
          <mxGeometry width="370" height="120" as="geometry" />
        </mxCell>
        <mxCell id="8iujGPbMvRqzLhgsaXlu-15" value="Llama2" style="rounded=1;whiteSpace=wrap;html=1;shadow=0;glass=0;labelBackgroundColor=#ffffff;sketch=0;strokeColor=#CCCCCC;strokeWidth=1;fontSize=10;fillColor=none;arcSize=6;" parent="8iujGPbMvRqzLhgsaXlu-13" vertex="1">
          <mxGeometry x="100" y="75" width="70" height="40" as="geometry" />
        </mxCell>
        <mxCell id="8iujGPbMvRqzLhgsaXlu-16" value="ChatGLM" style="rounded=1;whiteSpace=wrap;html=1;shadow=0;glass=0;labelBackgroundColor=#ffffff;sketch=0;strokeColor=#CCCCCC;strokeWidth=1;fontSize=10;fillColor=none;arcSize=6;" parent="8iujGPbMvRqzLhgsaXlu-13" vertex="1">
          <mxGeometry x="100" y="25" width="70" height="40" as="geometry" />
        </mxCell>
        <mxCell id="8iujGPbMvRqzLhgsaXlu-17" value="CodeGeeX" style="rounded=1;whiteSpace=wrap;html=1;shadow=0;glass=0;labelBackgroundColor=#ffffff;sketch=0;strokeColor=#CCCCCC;strokeWidth=1;fontSize=10;fillColor=none;arcSize=6;" parent="8iujGPbMvRqzLhgsaXlu-13" vertex="1">
          <mxGeometry x="193.75" y="25" width="70" height="40" as="geometry" />
        </mxCell>
        <mxCell id="8iujGPbMvRqzLhgsaXlu-18" value="通义千问" style="rounded=1;whiteSpace=wrap;html=1;shadow=0;glass=0;labelBackgroundColor=#ffffff;sketch=0;strokeColor=#CCCCCC;strokeWidth=1;fontSize=10;fillColor=none;arcSize=6;" parent="8iujGPbMvRqzLhgsaXlu-13" vertex="1">
          <mxGeometry x="10" y="75" width="70" height="40" as="geometry" />
        </mxCell>
        <mxCell id="8iujGPbMvRqzLhgsaXlu-19" value="&lt;span style=&quot;font-size: 10px;&quot;&gt;基础大模型&lt;/span&gt;" style="text;html=1;strokeColor=none;fillColor=none;align=center;verticalAlign=middle;whiteSpace=wrap;rounded=0;" parent="8iujGPbMvRqzLhgsaXlu-13" vertex="1">
          <mxGeometry x="146.25" y="3" width="77.5" height="10" as="geometry" />
        </mxCell>
        <mxCell id="8iujGPbMvRqzLhgsaXlu-20" value="Deep Seek" style="rounded=1;whiteSpace=wrap;html=1;shadow=0;glass=0;labelBackgroundColor=#ffffff;sketch=0;strokeColor=#CCCCCC;strokeWidth=1;fontSize=10;fillColor=none;arcSize=6;" parent="8iujGPbMvRqzLhgsaXlu-13" vertex="1">
          <mxGeometry x="10" y="25" width="70" height="40" as="geometry" />
        </mxCell>
        <mxCell id="8iujGPbMvRqzLhgsaXlu-21" value="BITO" style="rounded=1;whiteSpace=wrap;html=1;shadow=0;glass=0;labelBackgroundColor=#ffffff;sketch=0;strokeColor=#CCCCCC;strokeWidth=1;fontSize=10;fillColor=none;arcSize=6;" parent="8iujGPbMvRqzLhgsaXlu-13" vertex="1">
          <mxGeometry x="288" y="75" width="70" height="40" as="geometry" />
        </mxCell>
        <mxCell id="8iujGPbMvRqzLhgsaXlu-22" value="GPT" style="rounded=1;whiteSpace=wrap;html=1;shadow=0;glass=0;labelBackgroundColor=#ffffff;sketch=0;strokeColor=#CCCCCC;strokeWidth=1;fontSize=10;fillColor=none;arcSize=6;" parent="8iujGPbMvRqzLhgsaXlu-13" vertex="1">
          <mxGeometry x="193.75" y="75" width="70" height="40" as="geometry" />
        </mxCell>
        <mxCell id="8iujGPbMvRqzLhgsaXlu-23" value="百川" style="rounded=1;whiteSpace=wrap;html=1;shadow=0;glass=0;labelBackgroundColor=#ffffff;sketch=0;strokeColor=#CCCCCC;strokeWidth=1;fontSize=10;fillColor=none;arcSize=6;" parent="8iujGPbMvRqzLhgsaXlu-13" vertex="1">
          <mxGeometry x="288.5" y="25" width="70" height="40" as="geometry" />
        </mxCell>
        <mxCell id="8iujGPbMvRqzLhgsaXlu-24" value="" style="group" parent="8iujGPbMvRqzLhgsaXlu-1" vertex="1" connectable="0">
          <mxGeometry x="60" y="11" width="710" height="90" as="geometry" />
        </mxCell>
        <mxCell id="8iujGPbMvRqzLhgsaXlu-25" value="" style="rounded=1;whiteSpace=wrap;html=1;shadow=0;glass=0;labelBackgroundColor=#ffffff;sketch=0;strokeColor=#CCCCCC;strokeWidth=1;fillColor=none;arcSize=7;" parent="8iujGPbMvRqzLhgsaXlu-24" vertex="1">
          <mxGeometry width="710" height="90" as="geometry" />
        </mxCell>
        <mxCell id="8iujGPbMvRqzLhgsaXlu-26" value="&lt;span style=&quot;font-size: 10px;&quot;&gt;框架&amp;amp;组件&lt;/span&gt;" style="text;html=1;strokeColor=none;fillColor=none;align=center;verticalAlign=middle;whiteSpace=wrap;rounded=0;" parent="8iujGPbMvRqzLhgsaXlu-24" vertex="1">
          <mxGeometry x="324.40999999999985" width="61.18" height="18.89" as="geometry" />
        </mxCell>
        <mxCell id="8iujGPbMvRqzLhgsaXlu-27" value="LangChain" style="rounded=1;whiteSpace=wrap;html=1;shadow=0;glass=0;labelBackgroundColor=#ffffff;sketch=0;strokeColor=#CCCCCC;strokeWidth=1;fontSize=10;fillColor=none;arcSize=6;" parent="8iujGPbMvRqzLhgsaXlu-24" vertex="1">
          <mxGeometry x="100" y="30" width="70" height="40" as="geometry" />
        </mxCell>
        <mxCell id="8iujGPbMvRqzLhgsaXlu-28" value="Llama Index" style="rounded=1;whiteSpace=wrap;html=1;shadow=0;glass=0;labelBackgroundColor=#ffffff;sketch=0;strokeColor=#CCCCCC;strokeWidth=1;fontSize=10;fillColor=none;arcSize=6;" parent="8iujGPbMvRqzLhgsaXlu-24" vertex="1">
          <mxGeometry x="17" y="30" width="70" height="40" as="geometry" />
        </mxCell>
        <mxCell id="8iujGPbMvRqzLhgsaXlu-29" value="vLLM" style="rounded=1;whiteSpace=wrap;html=1;shadow=0;glass=0;labelBackgroundColor=#ffffff;sketch=0;strokeColor=#CCCCCC;strokeWidth=1;fontSize=10;fillColor=none;arcSize=6;" parent="8iujGPbMvRqzLhgsaXlu-24" vertex="1">
          <mxGeometry x="373" y="30" width="70" height="40" as="geometry" />
        </mxCell>
        <mxCell id="8iujGPbMvRqzLhgsaXlu-30" value="tensorRT" style="rounded=1;whiteSpace=wrap;html=1;shadow=0;glass=0;labelBackgroundColor=#ffffff;sketch=0;strokeColor=#CCCCCC;strokeWidth=1;fontSize=10;fillColor=none;arcSize=6;" parent="8iujGPbMvRqzLhgsaXlu-24" vertex="1">
          <mxGeometry x="460" y="30" width="70" height="40" as="geometry" />
        </mxCell>
        <mxCell id="8iujGPbMvRqzLhgsaXlu-31" value="Deep Speed" style="rounded=1;whiteSpace=wrap;html=1;shadow=0;glass=0;labelBackgroundColor=#ffffff;sketch=0;strokeColor=#CCCCCC;strokeWidth=1;fontSize=10;fillColor=none;arcSize=6;" parent="8iujGPbMvRqzLhgsaXlu-24" vertex="1">
          <mxGeometry x="190" y="30" width="70" height="40" as="geometry" />
        </mxCell>
        <mxCell id="8iujGPbMvRqzLhgsaXlu-32" value="Xinference" style="rounded=1;whiteSpace=wrap;html=1;shadow=0;glass=0;labelBackgroundColor=#ffffff;sketch=0;strokeColor=#CCCCCC;strokeWidth=1;fontSize=10;fillColor=none;arcSize=6;" parent="8iujGPbMvRqzLhgsaXlu-24" vertex="1">
          <mxGeometry x="280" y="30" width="70" height="40" as="geometry" />
        </mxCell>
        <mxCell id="8iujGPbMvRqzLhgsaXlu-33" value="Dify" style="rounded=1;whiteSpace=wrap;html=1;shadow=0;glass=0;labelBackgroundColor=#ffffff;sketch=0;strokeColor=#CCCCCC;strokeWidth=1;fontSize=10;fillColor=none;arcSize=6;" parent="8iujGPbMvRqzLhgsaXlu-24" vertex="1">
          <mxGeometry x="550" y="30" width="70" height="40" as="geometry" />
        </mxCell>
        <mxCell id="8iujGPbMvRqzLhgsaXlu-34" value="" style="group" parent="1" vertex="1" connectable="0">
          <mxGeometry x="30" y="460" width="780" height="240" as="geometry" />
        </mxCell>
        <mxCell id="8iujGPbMvRqzLhgsaXlu-35" value="" style="rounded=1;whiteSpace=wrap;html=1;shadow=0;glass=0;arcSize=5;strokeColor=#CCCCCC;strokeWidth=1;" parent="8iujGPbMvRqzLhgsaXlu-34" vertex="1">
          <mxGeometry width="780" height="240" as="geometry" />
        </mxCell>
        <mxCell id="8iujGPbMvRqzLhgsaXlu-36" value="&lt;p style=&quot;line-height: 150%;&quot;&gt;基&lt;br&gt;础&lt;br&gt;层&lt;/p&gt;" style="rounded=1;whiteSpace=wrap;html=1;shadow=0;glass=0;sketch=0;fillColor=#E4DBFA;strokeColor=none;verticalAlign=middle;horizontal=1;" parent="8iujGPbMvRqzLhgsaXlu-34" vertex="1">
          <mxGeometry x="5" y="5" width="40" height="230" as="geometry" />
        </mxCell>
        <mxCell id="8iujGPbMvRqzLhgsaXlu-37" value="" style="group" parent="8iujGPbMvRqzLhgsaXlu-34" vertex="1" connectable="0">
          <mxGeometry x="60" y="30" width="190" height="90" as="geometry" />
        </mxCell>
        <mxCell id="8iujGPbMvRqzLhgsaXlu-38" value="" style="rounded=1;whiteSpace=wrap;html=1;shadow=0;glass=0;labelBackgroundColor=#ffffff;sketch=0;strokeColor=#CCCCCC;strokeWidth=1;fillColor=none;arcSize=11;" parent="8iujGPbMvRqzLhgsaXlu-37" vertex="1">
          <mxGeometry width="190" height="90" as="geometry" />
        </mxCell>
        <mxCell id="8iujGPbMvRqzLhgsaXlu-39" value="&lt;span style=&quot;font-size: 10px;&quot;&gt;环境管理&lt;/span&gt;" style="text;html=1;strokeColor=none;fillColor=none;align=center;verticalAlign=middle;whiteSpace=wrap;rounded=0;" parent="8iujGPbMvRqzLhgsaXlu-37" vertex="1">
          <mxGeometry x="56.25" y="5" width="77.5" height="10" as="geometry" />
        </mxCell>
        <mxCell id="8iujGPbMvRqzLhgsaXlu-40" value="conda" style="rounded=1;whiteSpace=wrap;html=1;shadow=0;glass=0;labelBackgroundColor=#ffffff;sketch=0;strokeColor=#CCCCCC;strokeWidth=1;fontSize=10;fillColor=none;arcSize=6;" parent="8iujGPbMvRqzLhgsaXlu-37" vertex="1">
          <mxGeometry x="20" y="30" width="70" height="40" as="geometry" />
        </mxCell>
        <mxCell id="8iujGPbMvRqzLhgsaXlu-41" value="pip" style="rounded=1;whiteSpace=wrap;html=1;shadow=0;glass=0;labelBackgroundColor=#ffffff;sketch=0;strokeColor=#CCCCCC;strokeWidth=1;fontSize=10;fillColor=none;arcSize=6;" parent="8iujGPbMvRqzLhgsaXlu-37" vertex="1">
          <mxGeometry x="100" y="30" width="70" height="40" as="geometry" />
        </mxCell>
        <mxCell id="8iujGPbMvRqzLhgsaXlu-42" value="" style="group" parent="8iujGPbMvRqzLhgsaXlu-34" vertex="1" connectable="0">
          <mxGeometry x="270" y="140" width="190" height="90" as="geometry" />
        </mxCell>
        <mxCell id="8iujGPbMvRqzLhgsaXlu-43" value="" style="rounded=1;whiteSpace=wrap;html=1;shadow=0;glass=0;labelBackgroundColor=#ffffff;sketch=0;strokeColor=#CCCCCC;strokeWidth=1;fillColor=none;arcSize=11;" parent="8iujGPbMvRqzLhgsaXlu-42" vertex="1">
          <mxGeometry width="190" height="90" as="geometry" />
        </mxCell>
        <mxCell id="8iujGPbMvRqzLhgsaXlu-44" value="&lt;span style=&quot;font-size: 10px;&quot;&gt;向量数据库&lt;/span&gt;" style="text;html=1;strokeColor=none;fillColor=none;align=center;verticalAlign=middle;whiteSpace=wrap;rounded=0;" parent="8iujGPbMvRqzLhgsaXlu-42" vertex="1">
          <mxGeometry x="56.25" y="5" width="77.5" height="10" as="geometry" />
        </mxCell>
        <mxCell id="8iujGPbMvRqzLhgsaXlu-45" value="milvus" style="rounded=1;whiteSpace=wrap;html=1;shadow=0;glass=0;labelBackgroundColor=#ffffff;sketch=0;strokeColor=#CCCCCC;strokeWidth=1;fontSize=10;fillColor=none;arcSize=6;" parent="8iujGPbMvRqzLhgsaXlu-42" vertex="1">
          <mxGeometry x="20" y="40" width="70" height="40" as="geometry" />
        </mxCell>
        <mxCell id="8iujGPbMvRqzLhgsaXlu-46" value="weaviate" style="rounded=1;whiteSpace=wrap;html=1;shadow=0;glass=0;labelBackgroundColor=#ffffff;sketch=0;strokeColor=#CCCCCC;strokeWidth=1;fontSize=10;fillColor=none;arcSize=6;" parent="8iujGPbMvRqzLhgsaXlu-42" vertex="1">
          <mxGeometry x="100" y="40" width="70" height="40" as="geometry" />
        </mxCell>
        <mxCell id="8iujGPbMvRqzLhgsaXlu-47" value="" style="group" parent="8iujGPbMvRqzLhgsaXlu-34" vertex="1" connectable="0">
          <mxGeometry x="470" y="30" width="280" height="200" as="geometry" />
        </mxCell>
        <mxCell id="8iujGPbMvRqzLhgsaXlu-48" value="" style="rounded=1;whiteSpace=wrap;html=1;shadow=0;glass=0;labelBackgroundColor=#ffffff;sketch=0;strokeColor=#CCCCCC;strokeWidth=1;fillColor=none;arcSize=5;" parent="8iujGPbMvRqzLhgsaXlu-47" vertex="1">
          <mxGeometry width="280" height="200" as="geometry" />
        </mxCell>
        <mxCell id="8iujGPbMvRqzLhgsaXlu-49" value="&lt;span style=&quot;font-size: 10px;&quot;&gt;训练&amp;amp;推理&lt;/span&gt;" style="text;html=1;strokeColor=none;fillColor=none;align=center;verticalAlign=middle;whiteSpace=wrap;rounded=0;" parent="8iujGPbMvRqzLhgsaXlu-47" vertex="1">
          <mxGeometry x="79.93421052631581" y="1.5555555555555554" width="110.13157894736844" height="21.11111111111111" as="geometry" />
        </mxCell>
        <mxCell id="8iujGPbMvRqzLhgsaXlu-50" value="CUDA" style="rounded=1;whiteSpace=wrap;html=1;shadow=0;glass=0;labelBackgroundColor=#ffffff;sketch=0;strokeColor=#CCCCCC;strokeWidth=1;fontSize=10;fillColor=none;arcSize=6;" parent="8iujGPbMvRqzLhgsaXlu-47" vertex="1">
          <mxGeometry x="11.600000000000001" y="40" width="75.60000000000001" height="40" as="geometry" />
        </mxCell>
        <mxCell id="8iujGPbMvRqzLhgsaXlu-51" value="PyTorch" style="rounded=1;whiteSpace=wrap;html=1;shadow=0;glass=0;labelBackgroundColor=#ffffff;sketch=0;strokeColor=#CCCCCC;strokeWidth=1;fontSize=10;fillColor=none;arcSize=6;" parent="8iujGPbMvRqzLhgsaXlu-47" vertex="1">
          <mxGeometry x="11.600000000000001" y="90" width="75.60000000000001" height="40" as="geometry" />
        </mxCell>
        <mxCell id="8iujGPbMvRqzLhgsaXlu-52" value="TensorFlow" style="rounded=1;whiteSpace=wrap;html=1;shadow=0;glass=0;labelBackgroundColor=#ffffff;sketch=0;strokeColor=#CCCCCC;strokeWidth=1;fontSize=10;fillColor=none;arcSize=6;" parent="8iujGPbMvRqzLhgsaXlu-47" vertex="1">
          <mxGeometry x="104.46920000000001" y="90" width="75.60000000000001" height="40" as="geometry" />
        </mxCell>
        <mxCell id="8iujGPbMvRqzLhgsaXlu-53" value="Keras" style="rounded=1;whiteSpace=wrap;html=1;shadow=0;glass=0;labelBackgroundColor=#ffffff;sketch=0;strokeColor=#CCCCCC;strokeWidth=1;fontSize=10;fillColor=none;arcSize=6;" parent="8iujGPbMvRqzLhgsaXlu-47" vertex="1">
          <mxGeometry x="104.46920000000001" y="40" width="75.60000000000001" height="40" as="geometry" />
        </mxCell>
        <mxCell id="8iujGPbMvRqzLhgsaXlu-54" value="JAX" style="rounded=1;whiteSpace=wrap;html=1;shadow=0;glass=0;labelBackgroundColor=#ffffff;sketch=0;strokeColor=#CCCCCC;strokeWidth=1;fontSize=10;fillColor=none;arcSize=6;" parent="8iujGPbMvRqzLhgsaXlu-47" vertex="1">
          <mxGeometry x="190.06920000000002" y="40" width="75.60000000000001" height="40" as="geometry" />
        </mxCell>
        <mxCell id="8iujGPbMvRqzLhgsaXlu-55" value="ONNX" style="rounded=1;whiteSpace=wrap;html=1;shadow=0;glass=0;labelBackgroundColor=#ffffff;sketch=0;strokeColor=#CCCCCC;strokeWidth=1;fontSize=10;fillColor=none;arcSize=6;" parent="8iujGPbMvRqzLhgsaXlu-47" vertex="1">
          <mxGeometry x="190.06920000000002" y="90" width="75.60000000000001" height="40" as="geometry" />
        </mxCell>
        <mxCell id="8iujGPbMvRqzLhgsaXlu-56" value="Transformers" style="rounded=1;whiteSpace=wrap;html=1;shadow=0;glass=0;labelBackgroundColor=#ffffff;sketch=0;strokeColor=#CCCCCC;strokeWidth=1;fontSize=10;fillColor=none;arcSize=6;" parent="8iujGPbMvRqzLhgsaXlu-47" vertex="1">
          <mxGeometry x="11.600000000000023" y="140" width="75.60000000000001" height="40" as="geometry" />
        </mxCell>
        <mxCell id="8iujGPbMvRqzLhgsaXlu-57" value="" style="group" parent="8iujGPbMvRqzLhgsaXlu-34" vertex="1" connectable="0">
          <mxGeometry x="60" y="140" width="190" height="90" as="geometry" />
        </mxCell>
        <mxCell id="8iujGPbMvRqzLhgsaXlu-58" value="" style="rounded=1;whiteSpace=wrap;html=1;shadow=0;glass=0;labelBackgroundColor=#ffffff;sketch=0;strokeColor=#CCCCCC;strokeWidth=1;fillColor=none;arcSize=13;" parent="8iujGPbMvRqzLhgsaXlu-57" vertex="1">
          <mxGeometry width="190" height="90" as="geometry" />
        </mxCell>
        <mxCell id="8iujGPbMvRqzLhgsaXlu-59" value="&lt;font style=&quot;font-size: 10px;&quot;&gt;云计算平台&lt;/font&gt;" style="text;html=1;strokeColor=none;fillColor=none;align=center;verticalAlign=middle;whiteSpace=wrap;rounded=0;" parent="8iujGPbMvRqzLhgsaXlu-57" vertex="1">
          <mxGeometry x="56.25" y="5" width="77.5" height="10" as="geometry" />
        </mxCell>
        <mxCell id="8iujGPbMvRqzLhgsaXlu-60" value="HULK" style="rounded=1;whiteSpace=wrap;html=1;shadow=0;glass=0;labelBackgroundColor=#ffffff;sketch=0;strokeColor=#CCCCCC;strokeWidth=1;fontSize=10;fillColor=none;arcSize=6;" parent="8iujGPbMvRqzLhgsaXlu-57" vertex="1">
          <mxGeometry x="10" y="30" width="70" height="40" as="geometry" />
        </mxCell>
        <mxCell id="8iujGPbMvRqzLhgsaXlu-61" value="NVIDIA" style="rounded=1;whiteSpace=wrap;html=1;shadow=0;glass=0;labelBackgroundColor=#ffffff;sketch=0;strokeColor=#CCCCCC;strokeWidth=1;fontSize=10;fillColor=none;arcSize=6;" parent="8iujGPbMvRqzLhgsaXlu-57" vertex="1">
          <mxGeometry x="100" y="30" width="70" height="40" as="geometry" />
        </mxCell>
        <mxCell id="8iujGPbMvRqzLhgsaXlu-62" value="" style="group" parent="8iujGPbMvRqzLhgsaXlu-34" vertex="1" connectable="0">
          <mxGeometry x="270" y="30" width="190" height="90" as="geometry" />
        </mxCell>
        <mxCell id="8iujGPbMvRqzLhgsaXlu-63" value="" style="rounded=1;whiteSpace=wrap;html=1;shadow=0;glass=0;labelBackgroundColor=#ffffff;sketch=0;strokeColor=#CCCCCC;strokeWidth=1;fillColor=none;arcSize=11;" parent="8iujGPbMvRqzLhgsaXlu-62" vertex="1">
          <mxGeometry width="190" height="90" as="geometry" />
        </mxCell>
        <mxCell id="8iujGPbMvRqzLhgsaXlu-64" value="&lt;span style=&quot;font-size: 10px;&quot;&gt;开源数据集&lt;/span&gt;" style="text;html=1;strokeColor=none;fillColor=none;align=center;verticalAlign=middle;whiteSpace=wrap;rounded=0;" parent="8iujGPbMvRqzLhgsaXlu-62" vertex="1">
          <mxGeometry x="56.25" y="5" width="77.5" height="10" as="geometry" />
        </mxCell>
        <mxCell id="8iujGPbMvRqzLhgsaXlu-65" value="ModelScope Datasets" style="rounded=1;whiteSpace=wrap;html=1;shadow=0;glass=0;labelBackgroundColor=#ffffff;sketch=0;strokeColor=#CCCCCC;strokeWidth=1;fontSize=10;fillColor=none;arcSize=6;" parent="8iujGPbMvRqzLhgsaXlu-62" vertex="1">
          <mxGeometry x="20" y="30" width="70" height="40" as="geometry" />
        </mxCell>
        <mxCell id="8iujGPbMvRqzLhgsaXlu-66" value="Hugging Face&lt;br&gt;Datasets" style="rounded=1;whiteSpace=wrap;html=1;shadow=0;glass=0;labelBackgroundColor=#ffffff;sketch=0;strokeColor=#CCCCCC;strokeWidth=1;fontSize=10;fillColor=none;arcSize=6;" parent="8iujGPbMvRqzLhgsaXlu-62" vertex="1">
          <mxGeometry x="100" y="30" width="70" height="40" as="geometry" />
        </mxCell>
        <mxCell id="8iujGPbMvRqzLhgsaXlu-67" value="&lt;b&gt;Keras&lt;/b&gt;:&amp;nbsp;高级神经网络API，可以运行在TensorFlow、Theano和Microsoft Cognitive Toolkit等后端上，使神经网络的构建和训练更加简单。&lt;br&gt;&lt;b&gt;JAX&lt;/b&gt;:&amp;nbsp;Google开发的用于加速和自动求导的Python库，基于XLA（加速线性代数）进行开发，支持在CPU、GPU和TPU等硬件上运行，同时提供了一系列强大的工具和函数，使得在构建、训练和部署神经网络模型时更加方便。&lt;br&gt;&lt;b&gt;ONNX&lt;/b&gt;:&amp;nbsp;开放式的神经网络交换格式（Open Neural Network Exchange），用于描述神经网络模型的结构和参数，从而使得在不同的深度学习框架之间进行模型的转换和共享成为可能，被多个流行的深度学习框架（如PyTorch、TensorFlow、MXNet等）支持。&lt;br&gt;&lt;b&gt;Xinference&lt;/b&gt;:&amp;nbsp;简化各种人工智能模型的操作和集成，使用户能够轻松地在云端或本地环境中运行和部署AI模型。&lt;br&gt;&lt;b&gt;LangChain&lt;/b&gt;:&amp;nbsp; 将模型与知识库串起来的框架，并提供http服务（帮我们把外部文件用Embedding技术导入知识库，并进行一些prompt编程与模型交互）。&lt;br&gt;&lt;b&gt;LlamaIndex&lt;/b&gt;: 与LangChain类似，提供基于本地知识库+大模型的增强检索能力（RAG）。&lt;br&gt;&lt;b&gt;vLLM: &lt;/b&gt;进行LLM(大语言)模型推理和加速的库，同时提供兼容OpenAI API的http接口（主要用来推理加速），模型从HuggingFace或者ModelScope下载。&lt;br&gt;&lt;b&gt;tensorRT&lt;/b&gt;: nvidia开发推理加速库" style="text;html=1;strokeColor=none;fillColor=none;align=left;verticalAlign=top;whiteSpace=wrap;rounded=0;fontSize=10;" parent="1" vertex="1">
          <mxGeometry x="30" y="720" width="780" height="160" as="geometry" />
        </mxCell>
        <mxCell id="8iujGPbMvRqzLhgsaXlu-68" value="" style="group" parent="1" vertex="1" connectable="0">
          <mxGeometry x="30" y="90" width="780" height="100" as="geometry" />
        </mxCell>
        <mxCell id="8iujGPbMvRqzLhgsaXlu-69" value="" style="rounded=1;whiteSpace=wrap;html=1;shadow=0;glass=0;arcSize=5;strokeColor=#CCCCCC;strokeWidth=1;" parent="8iujGPbMvRqzLhgsaXlu-68" vertex="1">
          <mxGeometry width="780" height="100" as="geometry" />
        </mxCell>
        <mxCell id="8iujGPbMvRqzLhgsaXlu-70" value="&lt;p style=&quot;line-height: 50%;&quot;&gt;应&lt;/p&gt;&lt;p style=&quot;line-height: 50%;&quot;&gt;用&lt;/p&gt;&lt;p style=&quot;line-height: 50%;&quot;&gt;层&lt;/p&gt;" style="rounded=1;whiteSpace=wrap;html=1;shadow=0;glass=0;sketch=0;fillColor=#FFE1CC;strokeColor=none;verticalAlign=middle;horizontal=1;" parent="8iujGPbMvRqzLhgsaXlu-68" vertex="1">
          <mxGeometry x="5" y="3.083333333333333" width="40" height="93" as="geometry" />
        </mxCell>
        <mxCell id="8iujGPbMvRqzLhgsaXlu-71" value="代码补全" style="rounded=1;whiteSpace=wrap;html=1;shadow=0;glass=0;labelBackgroundColor=#ffffff;sketch=0;strokeColor=#CCCCCC;strokeWidth=1;fontSize=10;fillColor=none;arcSize=6;" parent="8iujGPbMvRqzLhgsaXlu-68" vertex="1">
          <mxGeometry x="60" y="35" width="70" height="40" as="geometry" />
        </mxCell>
        <mxCell id="8iujGPbMvRqzLhgsaXlu-72" value="AI问答" style="rounded=1;whiteSpace=wrap;html=1;shadow=0;glass=0;labelBackgroundColor=#ffffff;sketch=0;strokeColor=#CCCCCC;strokeWidth=1;fontSize=10;fillColor=none;arcSize=6;" parent="8iujGPbMvRqzLhgsaXlu-68" vertex="1">
          <mxGeometry x="150" y="35" width="70" height="40" as="geometry" />
        </mxCell>
        <mxCell id="8iujGPbMvRqzLhgsaXlu-73" value="AI Review" style="rounded=1;whiteSpace=wrap;html=1;shadow=0;glass=0;labelBackgroundColor=#ffffff;sketch=0;strokeColor=#CCCCCC;strokeWidth=1;fontSize=10;fillColor=none;arcSize=6;" parent="8iujGPbMvRqzLhgsaXlu-68" vertex="1">
          <mxGeometry x="240" y="35" width="70" height="40" as="geometry" />
        </mxCell>
        <mxCell id="8iujGPbMvRqzLhgsaXlu-74" value="优化代码" style="rounded=1;whiteSpace=wrap;html=1;shadow=0;glass=0;labelBackgroundColor=#ffffff;sketch=0;strokeColor=#CCCCCC;strokeWidth=1;fontSize=10;fillColor=none;arcSize=6;" parent="8iujGPbMvRqzLhgsaXlu-68" vertex="1">
          <mxGeometry x="330" y="35" width="70" height="40" as="geometry" />
        </mxCell>
        <mxCell id="8iujGPbMvRqzLhgsaXlu-75" value="注释生成代码" style="rounded=1;whiteSpace=wrap;html=1;shadow=0;glass=0;labelBackgroundColor=#ffffff;sketch=0;strokeColor=#CCCCCC;strokeWidth=1;fontSize=10;fillColor=none;arcSize=6;" parent="8iujGPbMvRqzLhgsaXlu-68" vertex="1">
          <mxGeometry x="420" y="35" width="70" height="40" as="geometry" />
        </mxCell>
        <mxCell id="8iujGPbMvRqzLhgsaXlu-76" value="单元测试" style="rounded=1;whiteSpace=wrap;html=1;shadow=0;glass=0;labelBackgroundColor=#ffffff;sketch=0;strokeColor=#CCCCCC;strokeWidth=1;fontSize=10;fillColor=none;arcSize=6;" parent="8iujGPbMvRqzLhgsaXlu-68" vertex="1">
          <mxGeometry x="510" y="35" width="70" height="40" as="geometry" />
        </mxCell>
        <mxCell id="8iujGPbMvRqzLhgsaXlu-77" value="生成注释" style="rounded=1;whiteSpace=wrap;html=1;shadow=0;glass=0;labelBackgroundColor=#ffffff;sketch=0;strokeColor=#CCCCCC;strokeWidth=1;fontSize=10;fillColor=none;arcSize=6;" parent="8iujGPbMvRqzLhgsaXlu-68" vertex="1">
          <mxGeometry x="600" y="35" width="70" height="40" as="geometry" />
        </mxCell>
      </root>
    </mxGraphModel>
  </diagram>
  <diagram id="hw5-2gwXQo2o83pSEh1z" name="Page-2">
    <mxGraphModel dx="826" dy="557" grid="1" gridSize="10" guides="1" tooltips="1" connect="1" arrows="1" fold="1" page="1" pageScale="1" pageWidth="827" pageHeight="1169" math="0" shadow="0">
      <root>
        <mxCell id="0" />
        <mxCell id="1" parent="0" />
        <mxCell id="wTrSJTRR9ERLFyiuBoBx-1" value="" style="rounded=1;whiteSpace=wrap;html=1;shadow=0;glass=0;labelBackgroundColor=#ffffff;sketch=0;strokeColor=none;strokeWidth=1;fontSize=10;fillColor=#F9FAFF;arcSize=1;" vertex="1" parent="1">
          <mxGeometry x="20" y="150" width="250" height="310" as="geometry" />
        </mxCell>
        <mxCell id="wTrSJTRR9ERLFyiuBoBx-2" value="IDE中的毓智AI专家插件" style="text;html=1;strokeColor=none;fillColor=none;align=center;verticalAlign=middle;whiteSpace=wrap;rounded=0;fontSize=10;" vertex="1" parent="1">
          <mxGeometry x="20" y="160" width="125" height="20" as="geometry" />
        </mxCell>
        <mxCell id="wTrSJTRR9ERLFyiuBoBx-3" value="" style="rounded=0;whiteSpace=wrap;html=1;shadow=0;glass=0;labelBackgroundColor=#ffffff;sketch=0;strokeWidth=1;fontSize=10;fillColor=#EBEEFF;fontColor=#333333;strokeColor=none;" vertex="1" parent="1">
          <mxGeometry x="35" y="190" width="220" height="150" as="geometry" />
        </mxCell>
        <mxCell id="wTrSJTRR9ERLFyiuBoBx-4" value="" style="group" vertex="1" connectable="0" parent="1">
          <mxGeometry x="39" y="197" width="20" height="20" as="geometry" />
        </mxCell>
        <mxCell id="wTrSJTRR9ERLFyiuBoBx-5" value="" style="ellipse;whiteSpace=wrap;html=1;aspect=fixed;rounded=1;shadow=0;glass=0;labelBackgroundColor=#ffffff;sketch=0;strokeColor=none;strokeWidth=1;fontSize=10;fillColor=#51AC5C;" vertex="1" parent="wTrSJTRR9ERLFyiuBoBx-4">
          <mxGeometry width="20" height="20" as="geometry" />
        </mxCell>
        <mxCell id="wTrSJTRR9ERLFyiuBoBx-6" value="&lt;font style=&quot;font-size: 11px;&quot;&gt;1&lt;/font&gt;" style="text;html=1;strokeColor=none;fillColor=none;align=center;verticalAlign=middle;whiteSpace=wrap;rounded=0;fontSize=11;fontColor=#FFFFFF;" vertex="1" parent="wTrSJTRR9ERLFyiuBoBx-4">
          <mxGeometry x="5" y="6.75" width="10" height="8.5" as="geometry" />
        </mxCell>
        <mxCell id="wTrSJTRR9ERLFyiuBoBx-7" value="&lt;font style=&quot;font-size: 9px;&quot;&gt;开发人员在编辑器中敲代码，毓智AI专家插件从以下位置收集上下文：&lt;br&gt;- 光标前的代码和光标后的代码&lt;br&gt;- 文件名和类型&lt;br&gt;- 附近代码引用的其它类文件&lt;br&gt;&lt;/font&gt;" style="text;html=1;strokeColor=none;fillColor=none;align=left;verticalAlign=top;whiteSpace=wrap;rounded=0;fontSize=10;fontColor=#000000;" vertex="1" parent="1">
          <mxGeometry x="62" y="191" width="178" height="66" as="geometry" />
        </mxCell>
        <mxCell id="wTrSJTRR9ERLFyiuBoBx-8" value="" style="group" vertex="1" connectable="0" parent="1">
          <mxGeometry x="39" y="270" width="20" height="20" as="geometry" />
        </mxCell>
        <mxCell id="wTrSJTRR9ERLFyiuBoBx-9" value="" style="ellipse;whiteSpace=wrap;html=1;aspect=fixed;rounded=1;shadow=0;glass=0;labelBackgroundColor=#ffffff;sketch=0;strokeColor=none;strokeWidth=1;fontSize=10;fillColor=#51AC5C;" vertex="1" parent="wTrSJTRR9ERLFyiuBoBx-8">
          <mxGeometry width="20" height="20" as="geometry" />
        </mxCell>
        <mxCell id="wTrSJTRR9ERLFyiuBoBx-10" value="&lt;font style=&quot;font-size: 11px;&quot;&gt;2&lt;/font&gt;" style="text;html=1;strokeColor=none;fillColor=none;align=center;verticalAlign=middle;whiteSpace=wrap;rounded=0;fontSize=11;fontColor=#FFFFFF;" vertex="1" parent="wTrSJTRR9ERLFyiuBoBx-8">
          <mxGeometry x="5" y="5.75" width="10" height="8.5" as="geometry" />
        </mxCell>
        <mxCell id="wTrSJTRR9ERLFyiuBoBx-11" value="&lt;font style=&quot;font-size: 9px;&quot;&gt;按一定规则精简上下文&lt;br&gt;- 保留当前文件附近方法的实现，其它方法只保留签名&lt;br&gt;- 添加光标附近代码关联类的字段和方法签名&lt;br&gt;&lt;/font&gt;" style="text;html=1;strokeColor=none;fillColor=none;align=left;verticalAlign=top;whiteSpace=wrap;rounded=0;fontSize=10;fontColor=#000000;" vertex="1" parent="1">
          <mxGeometry x="62" y="264" width="178" height="66" as="geometry" />
        </mxCell>
        <mxCell id="wTrSJTRR9ERLFyiuBoBx-12" value="" style="rounded=1;whiteSpace=wrap;html=1;shadow=0;glass=0;labelBackgroundColor=#ffffff;sketch=0;strokeColor=none;strokeWidth=1;fontSize=10;fillColor=#F4F7FF;arcSize=1;" vertex="1" parent="1">
          <mxGeometry x="350" y="90" width="470" height="330" as="geometry" />
        </mxCell>
        <mxCell id="wTrSJTRR9ERLFyiuBoBx-13" value="服务端" style="text;html=1;strokeColor=none;fillColor=none;align=left;verticalAlign=middle;whiteSpace=wrap;rounded=0;fontSize=10;" vertex="1" parent="1">
          <mxGeometry x="360" y="100" width="125" height="20" as="geometry" />
        </mxCell>
        <mxCell id="wTrSJTRR9ERLFyiuBoBx-14" value="" style="rounded=1;whiteSpace=wrap;html=1;shadow=0;glass=0;labelBackgroundColor=#ffffff;sketch=0;strokeColor=#CCCCCC;strokeWidth=1;fontSize=10;fillColor=#7583FE;arcSize=1;" vertex="1" parent="1">
          <mxGeometry x="360" y="150" width="210" height="250" as="geometry" />
        </mxCell>
        <mxCell id="wTrSJTRR9ERLFyiuBoBx-15" value="插件后端服务" style="text;html=1;align=left;verticalAlign=middle;whiteSpace=wrap;rounded=0;fontSize=10;fontColor=#FFFFFF;" vertex="1" parent="1">
          <mxGeometry x="370" y="160" width="80" height="20" as="geometry" />
        </mxCell>
        <mxCell id="wTrSJTRR9ERLFyiuBoBx-16" style="edgeStyle=orthogonalEdgeStyle;rounded=0;orthogonalLoop=1;jettySize=auto;html=1;exitX=1;exitY=0.25;exitDx=0;exitDy=0;entryX=0.5;entryY=0;entryDx=0;entryDy=0;fontSize=10;fontColor=#000000;" edge="1" parent="1" source="wTrSJTRR9ERLFyiuBoBx-17" target="wTrSJTRR9ERLFyiuBoBx-22">
          <mxGeometry relative="1" as="geometry" />
        </mxCell>
        <mxCell id="wTrSJTRR9ERLFyiuBoBx-17" value="" style="rounded=0;whiteSpace=wrap;html=1;shadow=0;glass=0;labelBackgroundColor=#ffffff;sketch=0;strokeWidth=1;fontSize=10;fillColor=#6B78F8;fontColor=#333333;strokeColor=none;" vertex="1" parent="1">
          <mxGeometry x="370" y="191" width="190" height="89" as="geometry" />
        </mxCell>
        <mxCell id="wTrSJTRR9ERLFyiuBoBx-18" value="" style="group" vertex="1" connectable="0" parent="1">
          <mxGeometry x="374" y="198" width="20" height="20" as="geometry" />
        </mxCell>
        <mxCell id="wTrSJTRR9ERLFyiuBoBx-19" value="" style="ellipse;whiteSpace=wrap;html=1;aspect=fixed;rounded=1;shadow=0;glass=0;labelBackgroundColor=#ffffff;sketch=0;strokeColor=none;strokeWidth=1;fontSize=10;fillColor=#FFFFFF;" vertex="1" parent="wTrSJTRR9ERLFyiuBoBx-18">
          <mxGeometry width="20" height="20" as="geometry" />
        </mxCell>
        <mxCell id="wTrSJTRR9ERLFyiuBoBx-20" value="&lt;font style=&quot;font-size: 11px;&quot;&gt;3&lt;/font&gt;" style="text;html=1;strokeColor=none;fillColor=none;align=center;verticalAlign=middle;whiteSpace=wrap;rounded=0;fontSize=11;fontColor=#000000;" vertex="1" parent="wTrSJTRR9ERLFyiuBoBx-18">
          <mxGeometry x="5" y="6.75" width="10" height="8.5" as="geometry" />
        </mxCell>
        <mxCell id="wTrSJTRR9ERLFyiuBoBx-21" value="&lt;font style=&quot;font-size: 9px;&quot;&gt;根据配置的补全模型，组装prompt：&lt;br&gt;- 添加模型的开始标识和语言类型&lt;br&gt;- 添加精简后的关联类&lt;br&gt;- 添加光标前的代码和模型FILL标识&lt;br&gt;- 添加光标后的代码和模型结束标识&lt;br&gt;对prompt中敏感字段进行脱敏&lt;br&gt;&lt;/font&gt;" style="text;html=1;strokeColor=none;fillColor=none;align=left;verticalAlign=top;whiteSpace=wrap;rounded=0;fontSize=10;fontColor=#FFFFFF;" vertex="1" parent="1">
          <mxGeometry x="397" y="192" width="153" height="78" as="geometry" />
        </mxCell>
        <mxCell id="wTrSJTRR9ERLFyiuBoBx-22" value="" style="rounded=1;whiteSpace=wrap;html=1;shadow=0;glass=0;labelBackgroundColor=#ffffff;sketch=0;strokeColor=#CCCCCC;strokeWidth=1;fontSize=10;fillColor=#7583FE;arcSize=1;" vertex="1" parent="1">
          <mxGeometry x="590" y="258" width="210" height="93" as="geometry" />
        </mxCell>
        <mxCell id="wTrSJTRR9ERLFyiuBoBx-23" value="模型端" style="text;html=1;align=left;verticalAlign=middle;whiteSpace=wrap;rounded=0;fontSize=10;fontColor=#FFFFFF;" vertex="1" parent="1">
          <mxGeometry x="600" y="268" width="80" height="20" as="geometry" />
        </mxCell>
        <mxCell id="wTrSJTRR9ERLFyiuBoBx-24" style="edgeStyle=orthogonalEdgeStyle;rounded=0;orthogonalLoop=1;jettySize=auto;html=1;exitX=0.5;exitY=1;exitDx=0;exitDy=0;fontSize=10;fontColor=#000000;entryX=1;entryY=0.5;entryDx=0;entryDy=0;" edge="1" parent="1" source="wTrSJTRR9ERLFyiuBoBx-25" target="wTrSJTRR9ERLFyiuBoBx-32">
          <mxGeometry relative="1" as="geometry">
            <Array as="points">
              <mxPoint x="695" y="365" />
            </Array>
          </mxGeometry>
        </mxCell>
        <mxCell id="wTrSJTRR9ERLFyiuBoBx-25" value="" style="rounded=0;whiteSpace=wrap;html=1;shadow=0;glass=0;labelBackgroundColor=#ffffff;sketch=0;strokeWidth=1;fontSize=10;fillColor=#6B78F8;fontColor=#333333;strokeColor=none;" vertex="1" parent="1">
          <mxGeometry x="600" y="300" width="190" height="40" as="geometry" />
        </mxCell>
        <mxCell id="wTrSJTRR9ERLFyiuBoBx-26" value="" style="group" vertex="1" connectable="0" parent="1">
          <mxGeometry x="604" y="307" width="20" height="20" as="geometry" />
        </mxCell>
        <mxCell id="wTrSJTRR9ERLFyiuBoBx-27" value="" style="ellipse;whiteSpace=wrap;html=1;aspect=fixed;rounded=1;shadow=0;glass=0;labelBackgroundColor=#ffffff;sketch=0;strokeColor=none;strokeWidth=1;fontSize=10;fillColor=#FFFFFF;" vertex="1" parent="wTrSJTRR9ERLFyiuBoBx-26">
          <mxGeometry width="20" height="20" as="geometry" />
        </mxCell>
        <mxCell id="wTrSJTRR9ERLFyiuBoBx-28" value="&lt;font style=&quot;font-size: 11px;&quot;&gt;4&lt;/font&gt;" style="text;html=1;strokeColor=none;fillColor=none;align=center;verticalAlign=middle;whiteSpace=wrap;rounded=0;fontSize=11;fontColor=#000000;" vertex="1" parent="wTrSJTRR9ERLFyiuBoBx-26">
          <mxGeometry x="5" y="6.75" width="10" height="8.5" as="geometry" />
        </mxCell>
        <mxCell id="wTrSJTRR9ERLFyiuBoBx-29" value="&lt;font style=&quot;font-size: 9px;&quot;&gt;根据prompt生成FILL处建议的代码&lt;br&gt;&lt;/font&gt;" style="text;html=1;strokeColor=none;fillColor=none;align=left;verticalAlign=top;whiteSpace=wrap;rounded=0;fontSize=10;fontColor=#FFFFFF;" vertex="1" parent="1">
          <mxGeometry x="627" y="304" width="153" height="20" as="geometry" />
        </mxCell>
        <mxCell id="wTrSJTRR9ERLFyiuBoBx-30" style="edgeStyle=orthogonalEdgeStyle;rounded=0;orthogonalLoop=1;jettySize=auto;html=1;fontSize=10;fontColor=#000000;" edge="1" parent="1">
          <mxGeometry relative="1" as="geometry">
            <mxPoint x="370" y="220" as="targetPoint" />
            <mxPoint x="255" y="220" as="sourcePoint" />
            <Array as="points">
              <mxPoint x="255" y="220" />
            </Array>
          </mxGeometry>
        </mxCell>
        <mxCell id="wTrSJTRR9ERLFyiuBoBx-31" style="edgeStyle=orthogonalEdgeStyle;rounded=0;orthogonalLoop=1;jettySize=auto;html=1;exitX=-0.002;exitY=0.544;exitDx=0;exitDy=0;fontSize=10;fontColor=#000000;entryX=1.003;entryY=0.17;entryDx=0;entryDy=0;entryPerimeter=0;exitPerimeter=0;" edge="1" parent="1" source="wTrSJTRR9ERLFyiuBoBx-32" target="wTrSJTRR9ERLFyiuBoBx-37">
          <mxGeometry relative="1" as="geometry">
            <mxPoint x="260" y="370" as="targetPoint" />
            <Array as="points" />
          </mxGeometry>
        </mxCell>
        <mxCell id="wTrSJTRR9ERLFyiuBoBx-32" value="" style="rounded=0;whiteSpace=wrap;html=1;shadow=0;glass=0;labelBackgroundColor=#ffffff;sketch=0;strokeWidth=1;fontSize=10;fillColor=#6B78F8;fontColor=#333333;strokeColor=none;" vertex="1" parent="1">
          <mxGeometry x="370" y="349" width="190" height="32" as="geometry" />
        </mxCell>
        <mxCell id="wTrSJTRR9ERLFyiuBoBx-33" value="" style="group" vertex="1" connectable="0" parent="1">
          <mxGeometry x="374" y="356" width="20" height="20" as="geometry" />
        </mxCell>
        <mxCell id="wTrSJTRR9ERLFyiuBoBx-34" value="" style="ellipse;whiteSpace=wrap;html=1;aspect=fixed;rounded=1;shadow=0;glass=0;labelBackgroundColor=#ffffff;sketch=0;strokeColor=none;strokeWidth=1;fontSize=10;fillColor=#FFFFFF;" vertex="1" parent="wTrSJTRR9ERLFyiuBoBx-33">
          <mxGeometry width="20" height="20" as="geometry" />
        </mxCell>
        <mxCell id="wTrSJTRR9ERLFyiuBoBx-35" value="&lt;font style=&quot;font-size: 11px;&quot;&gt;5&lt;/font&gt;" style="text;html=1;strokeColor=none;fillColor=none;align=center;verticalAlign=middle;whiteSpace=wrap;rounded=0;fontSize=11;fontColor=#000000;" vertex="1" parent="wTrSJTRR9ERLFyiuBoBx-33">
          <mxGeometry x="5" y="6.75" width="10" height="8.5" as="geometry" />
        </mxCell>
        <mxCell id="wTrSJTRR9ERLFyiuBoBx-36" value="&lt;font style=&quot;font-size: 9px;&quot;&gt;组装补全建议&lt;br&gt;&lt;/font&gt;" style="text;html=1;strokeColor=none;fillColor=none;align=left;verticalAlign=top;whiteSpace=wrap;rounded=0;fontSize=10;fontColor=#FFFFFF;" vertex="1" parent="1">
          <mxGeometry x="397" y="354" width="153" height="19" as="geometry" />
        </mxCell>
        <mxCell id="wTrSJTRR9ERLFyiuBoBx-37" value="" style="rounded=0;whiteSpace=wrap;html=1;shadow=0;glass=0;labelBackgroundColor=#ffffff;sketch=0;strokeWidth=1;fontSize=10;fillColor=#EBEEFF;fontColor=#333333;strokeColor=none;" vertex="1" parent="1">
          <mxGeometry x="35" y="351" width="220" height="89" as="geometry" />
        </mxCell>
        <mxCell id="wTrSJTRR9ERLFyiuBoBx-38" value="" style="group" vertex="1" connectable="0" parent="1">
          <mxGeometry x="39" y="358" width="20" height="20" as="geometry" />
        </mxCell>
        <mxCell id="wTrSJTRR9ERLFyiuBoBx-39" value="" style="ellipse;whiteSpace=wrap;html=1;aspect=fixed;rounded=1;shadow=0;glass=0;labelBackgroundColor=#ffffff;sketch=0;strokeColor=none;strokeWidth=1;fontSize=10;fillColor=#51AC5C;" vertex="1" parent="wTrSJTRR9ERLFyiuBoBx-38">
          <mxGeometry width="20" height="20" as="geometry" />
        </mxCell>
        <mxCell id="wTrSJTRR9ERLFyiuBoBx-40" value="&lt;font style=&quot;font-size: 11px;&quot;&gt;6&lt;/font&gt;" style="text;html=1;strokeColor=none;fillColor=none;align=center;verticalAlign=middle;whiteSpace=wrap;rounded=0;fontSize=11;fontColor=#FFFFFF;" vertex="1" parent="wTrSJTRR9ERLFyiuBoBx-38">
          <mxGeometry x="5" y="6.75" width="10" height="8.5" as="geometry" />
        </mxCell>
        <mxCell id="wTrSJTRR9ERLFyiuBoBx-41" value="&lt;font style=&quot;font-size: 9px;&quot;&gt;对补全建议的代码进行处理：&lt;br&gt;- 明显的语法bug进行修复或删除&lt;br&gt;- 与光标后重复的代码进行剔除&lt;br&gt;- 处理缩进&lt;br&gt;- 行中补全时，与已有代码做diff。&lt;br&gt;展示补全建议的代码&lt;br&gt;&lt;/font&gt;" style="text;html=1;strokeColor=none;fillColor=none;align=left;verticalAlign=top;whiteSpace=wrap;rounded=0;fontSize=10;fontColor=#000000;" vertex="1" parent="1">
          <mxGeometry x="62" y="352" width="178" height="88" as="geometry" />
        </mxCell>
      </root>
    </mxGraphModel>
  </diagram>
  <diagram id="tRRvga2-349wwaOuhYlW" name="Page-3">
    <mxGraphModel dx="826" dy="557" grid="1" gridSize="10" guides="1" tooltips="1" connect="1" arrows="1" fold="1" page="1" pageScale="1" pageWidth="827" pageHeight="1169" math="0" shadow="0">
      <root>
        <mxCell id="0" />
        <mxCell id="1" parent="0" />
        <mxCell id="sUQTUiR_hXJlY5Vw97WE-1" value="" style="rounded=1;whiteSpace=wrap;html=1;shadow=0;glass=0;labelBackgroundColor=#ffffff;sketch=0;strokeColor=none;strokeWidth=1;fontSize=10;fillColor=#F9FAFF;arcSize=1;" vertex="1" parent="1">
          <mxGeometry x="20" y="150" width="250" height="430" as="geometry" />
        </mxCell>
        <mxCell id="sUQTUiR_hXJlY5Vw97WE-2" value="IDE中的毓智AI专家插件" style="text;html=1;strokeColor=none;fillColor=none;align=center;verticalAlign=middle;whiteSpace=wrap;rounded=0;fontSize=10;" vertex="1" parent="1">
          <mxGeometry x="20" y="160" width="125" height="20" as="geometry" />
        </mxCell>
        <mxCell id="sUQTUiR_hXJlY5Vw97WE-3" value="" style="rounded=0;whiteSpace=wrap;html=1;shadow=0;glass=0;labelBackgroundColor=#ffffff;sketch=0;strokeWidth=1;fontSize=10;fillColor=#EBEEFF;fontColor=#333333;strokeColor=none;" vertex="1" parent="1">
          <mxGeometry x="35" y="190" width="220" height="150" as="geometry" />
        </mxCell>
        <mxCell id="sUQTUiR_hXJlY5Vw97WE-4" value="" style="group" vertex="1" connectable="0" parent="1">
          <mxGeometry x="39" y="197" width="20" height="20" as="geometry" />
        </mxCell>
        <mxCell id="sUQTUiR_hXJlY5Vw97WE-5" value="" style="ellipse;whiteSpace=wrap;html=1;aspect=fixed;rounded=1;shadow=0;glass=0;labelBackgroundColor=#ffffff;sketch=0;strokeColor=none;strokeWidth=1;fontSize=10;fillColor=#51AC5C;" vertex="1" parent="sUQTUiR_hXJlY5Vw97WE-4">
          <mxGeometry width="20" height="20" as="geometry" />
        </mxCell>
        <mxCell id="sUQTUiR_hXJlY5Vw97WE-6" value="&lt;font style=&quot;font-size: 11px;&quot;&gt;1&lt;/font&gt;" style="text;html=1;strokeColor=none;fillColor=none;align=center;verticalAlign=middle;whiteSpace=wrap;rounded=0;fontSize=11;fontColor=#FFFFFF;" vertex="1" parent="sUQTUiR_hXJlY5Vw97WE-4">
          <mxGeometry x="5" y="6.75" width="10" height="8.5" as="geometry" />
        </mxCell>
        <mxCell id="sUQTUiR_hXJlY5Vw97WE-7" value="&lt;font style=&quot;font-size: 9px;&quot;&gt;开发人员在注释行触发生成代码动作，毓智AI专家插件从以下位置收集上下文：&lt;br&gt;- 光标前的代码&lt;br&gt;- 文件名和类型&lt;br&gt;- 附近代码引用的其它类文件&lt;br&gt;&lt;/font&gt;" style="text;html=1;strokeColor=none;fillColor=none;align=left;verticalAlign=top;whiteSpace=wrap;rounded=0;fontSize=10;fontColor=#000000;" vertex="1" parent="1">
          <mxGeometry x="62" y="191" width="178" height="66" as="geometry" />
        </mxCell>
        <mxCell id="sUQTUiR_hXJlY5Vw97WE-8" value="" style="group" vertex="1" connectable="0" parent="1">
          <mxGeometry x="39" y="270" width="20" height="20" as="geometry" />
        </mxCell>
        <mxCell id="sUQTUiR_hXJlY5Vw97WE-9" value="" style="ellipse;whiteSpace=wrap;html=1;aspect=fixed;rounded=1;shadow=0;glass=0;labelBackgroundColor=#ffffff;sketch=0;strokeColor=none;strokeWidth=1;fontSize=10;fillColor=#51AC5C;" vertex="1" parent="sUQTUiR_hXJlY5Vw97WE-8">
          <mxGeometry width="20" height="20" as="geometry" />
        </mxCell>
        <mxCell id="sUQTUiR_hXJlY5Vw97WE-10" value="&lt;font style=&quot;font-size: 11px;&quot;&gt;2&lt;/font&gt;" style="text;html=1;strokeColor=none;fillColor=none;align=center;verticalAlign=middle;whiteSpace=wrap;rounded=0;fontSize=11;fontColor=#FFFFFF;" vertex="1" parent="sUQTUiR_hXJlY5Vw97WE-8">
          <mxGeometry x="5" y="5.75" width="10" height="8.5" as="geometry" />
        </mxCell>
        <mxCell id="sUQTUiR_hXJlY5Vw97WE-11" value="&lt;font style=&quot;font-size: 9px;&quot;&gt;按一定规则精简上下文&lt;br&gt;- 保留当前文件附近方法的实现，其它方法只保留签名&lt;br&gt;- 添加光标附近代码关联类的字段和方法签名&lt;br&gt;&lt;/font&gt;" style="text;html=1;strokeColor=none;fillColor=none;align=left;verticalAlign=top;whiteSpace=wrap;rounded=0;fontSize=10;fontColor=#000000;" vertex="1" parent="1">
          <mxGeometry x="62" y="264" width="178" height="66" as="geometry" />
        </mxCell>
        <mxCell id="sUQTUiR_hXJlY5Vw97WE-12" value="" style="rounded=1;whiteSpace=wrap;html=1;shadow=0;glass=0;labelBackgroundColor=#ffffff;sketch=0;strokeColor=none;strokeWidth=1;fontSize=10;fillColor=#F4F7FF;arcSize=1;" vertex="1" parent="1">
          <mxGeometry x="350" y="90" width="470" height="470" as="geometry" />
        </mxCell>
        <mxCell id="sUQTUiR_hXJlY5Vw97WE-13" value="服务端" style="text;html=1;strokeColor=none;fillColor=none;align=left;verticalAlign=middle;whiteSpace=wrap;rounded=0;fontSize=10;" vertex="1" parent="1">
          <mxGeometry x="360" y="100" width="125" height="20" as="geometry" />
        </mxCell>
        <mxCell id="sUQTUiR_hXJlY5Vw97WE-14" value="" style="rounded=1;whiteSpace=wrap;html=1;shadow=0;glass=0;labelBackgroundColor=#ffffff;sketch=0;strokeColor=#CCCCCC;strokeWidth=1;fontSize=10;fillColor=#7583FE;arcSize=1;" vertex="1" parent="1">
          <mxGeometry x="360" y="150" width="210" height="390" as="geometry" />
        </mxCell>
        <mxCell id="sUQTUiR_hXJlY5Vw97WE-15" value="插件后端服务" style="text;html=1;align=left;verticalAlign=middle;whiteSpace=wrap;rounded=0;fontSize=10;fontColor=#FFFFFF;" vertex="1" parent="1">
          <mxGeometry x="370" y="160" width="80" height="20" as="geometry" />
        </mxCell>
        <mxCell id="sUQTUiR_hXJlY5Vw97WE-16" value="" style="rounded=0;whiteSpace=wrap;html=1;shadow=0;glass=0;labelBackgroundColor=#ffffff;sketch=0;strokeWidth=1;fontSize=10;fillColor=#6B78F8;fontColor=#333333;strokeColor=none;" vertex="1" parent="1">
          <mxGeometry x="370" y="191" width="190" height="35" as="geometry" />
        </mxCell>
        <mxCell id="sUQTUiR_hXJlY5Vw97WE-17" value="" style="group" vertex="1" connectable="0" parent="1">
          <mxGeometry x="374" y="198" width="20" height="20" as="geometry" />
        </mxCell>
        <mxCell id="sUQTUiR_hXJlY5Vw97WE-18" value="" style="ellipse;whiteSpace=wrap;html=1;aspect=fixed;rounded=1;shadow=0;glass=0;labelBackgroundColor=#ffffff;sketch=0;strokeColor=none;strokeWidth=1;fontSize=10;fillColor=#FFFFFF;" vertex="1" parent="sUQTUiR_hXJlY5Vw97WE-17">
          <mxGeometry width="20" height="20" as="geometry" />
        </mxCell>
        <mxCell id="sUQTUiR_hXJlY5Vw97WE-19" value="&lt;font style=&quot;font-size: 11px;&quot;&gt;3&lt;/font&gt;" style="text;html=1;strokeColor=none;fillColor=none;align=center;verticalAlign=middle;whiteSpace=wrap;rounded=0;fontSize=11;fontColor=#000000;" vertex="1" parent="sUQTUiR_hXJlY5Vw97WE-17">
          <mxGeometry x="5" y="6.75" width="10" height="8.5" as="geometry" />
        </mxCell>
        <mxCell id="sUQTUiR_hXJlY5Vw97WE-20" value="&lt;font style=&quot;font-size: 9px;&quot;&gt;从知识库获取与注释内容匹配的知识&lt;br&gt;&lt;/font&gt;" style="text;html=1;strokeColor=none;fillColor=none;align=left;verticalAlign=top;whiteSpace=wrap;rounded=0;fontSize=10;fontColor=#FFFFFF;" vertex="1" parent="1">
          <mxGeometry x="397" y="196" width="153" height="28" as="geometry" />
        </mxCell>
        <mxCell id="sUQTUiR_hXJlY5Vw97WE-21" value="" style="rounded=1;whiteSpace=wrap;html=1;shadow=0;glass=0;labelBackgroundColor=#ffffff;sketch=0;strokeColor=#CCCCCC;strokeWidth=1;fontSize=10;fillColor=#7583FE;arcSize=1;" vertex="1" parent="1">
          <mxGeometry x="590" y="440" width="210" height="93" as="geometry" />
        </mxCell>
        <mxCell id="sUQTUiR_hXJlY5Vw97WE-22" value="模型端" style="text;html=1;align=left;verticalAlign=middle;whiteSpace=wrap;rounded=0;fontSize=10;fontColor=#FFFFFF;" vertex="1" parent="1">
          <mxGeometry x="600" y="450" width="80" height="20" as="geometry" />
        </mxCell>
        <mxCell id="sUQTUiR_hXJlY5Vw97WE-23" style="edgeStyle=orthogonalEdgeStyle;rounded=0;orthogonalLoop=1;jettySize=auto;html=1;exitX=0;exitY=0.5;exitDx=0;exitDy=0;entryX=1;entryY=0.5;entryDx=0;entryDy=0;fontSize=10;fontColor=#000000;" edge="1" parent="1" source="sUQTUiR_hXJlY5Vw97WE-24" target="sUQTUiR_hXJlY5Vw97WE-56">
          <mxGeometry relative="1" as="geometry" />
        </mxCell>
        <mxCell id="sUQTUiR_hXJlY5Vw97WE-24" value="" style="rounded=0;whiteSpace=wrap;html=1;shadow=0;glass=0;labelBackgroundColor=#ffffff;sketch=0;strokeWidth=1;fontSize=10;fillColor=#6B78F8;fontColor=#333333;strokeColor=none;" vertex="1" parent="1">
          <mxGeometry x="600" y="482" width="190" height="40" as="geometry" />
        </mxCell>
        <mxCell id="sUQTUiR_hXJlY5Vw97WE-25" value="" style="group" vertex="1" connectable="0" parent="1">
          <mxGeometry x="604" y="489" width="20" height="20" as="geometry" />
        </mxCell>
        <mxCell id="sUQTUiR_hXJlY5Vw97WE-26" value="" style="ellipse;whiteSpace=wrap;html=1;aspect=fixed;rounded=1;shadow=0;glass=0;labelBackgroundColor=#ffffff;sketch=0;strokeColor=none;strokeWidth=1;fontSize=10;fillColor=#FFFFFF;" vertex="1" parent="sUQTUiR_hXJlY5Vw97WE-25">
          <mxGeometry width="20" height="20" as="geometry" />
        </mxCell>
        <mxCell id="sUQTUiR_hXJlY5Vw97WE-27" value="&lt;font style=&quot;font-size: 11px;&quot;&gt;7&lt;/font&gt;" style="text;html=1;strokeColor=none;fillColor=none;align=center;verticalAlign=middle;whiteSpace=wrap;rounded=0;fontSize=11;fontColor=#000000;" vertex="1" parent="sUQTUiR_hXJlY5Vw97WE-25">
          <mxGeometry x="5" y="6.75" width="10" height="8.5" as="geometry" />
        </mxCell>
        <mxCell id="sUQTUiR_hXJlY5Vw97WE-28" value="&lt;font style=&quot;font-size: 9px;&quot;&gt;根据prompt生成代码&lt;br&gt;&lt;/font&gt;" style="text;html=1;strokeColor=none;fillColor=none;align=left;verticalAlign=top;whiteSpace=wrap;rounded=0;fontSize=10;fontColor=#FFFFFF;" vertex="1" parent="1">
          <mxGeometry x="627" y="486" width="153" height="20" as="geometry" />
        </mxCell>
        <mxCell id="sUQTUiR_hXJlY5Vw97WE-29" style="edgeStyle=orthogonalEdgeStyle;rounded=0;orthogonalLoop=1;jettySize=auto;html=1;exitX=1;exitY=0.75;exitDx=0;exitDy=0;entryX=0.5;entryY=0;entryDx=0;entryDy=0;fontSize=10;fontColor=#000000;" edge="1" parent="1" source="sUQTUiR_hXJlY5Vw97WE-30" target="sUQTUiR_hXJlY5Vw97WE-21">
          <mxGeometry relative="1" as="geometry" />
        </mxCell>
        <mxCell id="sUQTUiR_hXJlY5Vw97WE-30" value="" style="rounded=0;whiteSpace=wrap;html=1;shadow=0;glass=0;labelBackgroundColor=#ffffff;sketch=0;strokeWidth=1;fontSize=10;fillColor=#6B78F8;fontColor=#333333;strokeColor=none;" vertex="1" parent="1">
          <mxGeometry x="370" y="349" width="190" height="91" as="geometry" />
        </mxCell>
        <mxCell id="sUQTUiR_hXJlY5Vw97WE-31" value="" style="group" vertex="1" connectable="0" parent="1">
          <mxGeometry x="374" y="356" width="20" height="20" as="geometry" />
        </mxCell>
        <mxCell id="sUQTUiR_hXJlY5Vw97WE-32" value="" style="ellipse;whiteSpace=wrap;html=1;aspect=fixed;rounded=1;shadow=0;glass=0;labelBackgroundColor=#ffffff;sketch=0;strokeColor=none;strokeWidth=1;fontSize=10;fillColor=#FFFFFF;" vertex="1" parent="sUQTUiR_hXJlY5Vw97WE-31">
          <mxGeometry width="20" height="20" as="geometry" />
        </mxCell>
        <mxCell id="sUQTUiR_hXJlY5Vw97WE-33" value="&lt;font style=&quot;font-size: 11px;&quot;&gt;6&lt;/font&gt;" style="text;html=1;strokeColor=none;fillColor=none;align=center;verticalAlign=middle;whiteSpace=wrap;rounded=0;fontSize=11;fontColor=#000000;" vertex="1" parent="sUQTUiR_hXJlY5Vw97WE-31">
          <mxGeometry x="5" y="6.75" width="10" height="8.5" as="geometry" />
        </mxCell>
        <mxCell id="sUQTUiR_hXJlY5Vw97WE-34" value="&lt;font style=&quot;font-size: 9px;&quot;&gt;根据配置的补全模型，组装prompt：&lt;br style=&quot;border-color: var(--border-color);&quot;&gt;- 添加语言类型&lt;br&gt;- 添加知识库返回的内容&lt;br style=&quot;border-color: var(--border-color);&quot;&gt;- 添加精简后的关联代码&lt;br style=&quot;border-color: var(--border-color);&quot;&gt;- 添加光标前的代码&lt;br style=&quot;border-color: var(--border-color);&quot;&gt;对prompt中敏感字段进行脱敏&lt;br&gt;&lt;/font&gt;" style="text;html=1;strokeColor=none;fillColor=none;align=left;verticalAlign=top;whiteSpace=wrap;rounded=0;fontSize=10;fontColor=#FFFFFF;" vertex="1" parent="1">
          <mxGeometry x="397" y="354" width="153" height="86" as="geometry" />
        </mxCell>
        <mxCell id="sUQTUiR_hXJlY5Vw97WE-35" value="" style="rounded=0;whiteSpace=wrap;html=1;shadow=0;glass=0;labelBackgroundColor=#ffffff;sketch=0;strokeWidth=1;fontSize=10;fillColor=#EBEEFF;fontColor=#333333;strokeColor=none;" vertex="1" parent="1">
          <mxGeometry x="35" y="480" width="220" height="89" as="geometry" />
        </mxCell>
        <mxCell id="sUQTUiR_hXJlY5Vw97WE-36" value="" style="group" vertex="1" connectable="0" parent="1">
          <mxGeometry x="39" y="487" width="20" height="20" as="geometry" />
        </mxCell>
        <mxCell id="sUQTUiR_hXJlY5Vw97WE-37" value="" style="ellipse;whiteSpace=wrap;html=1;aspect=fixed;rounded=1;shadow=0;glass=0;labelBackgroundColor=#ffffff;sketch=0;strokeColor=none;strokeWidth=1;fontSize=10;fillColor=#51AC5C;" vertex="1" parent="sUQTUiR_hXJlY5Vw97WE-36">
          <mxGeometry width="20" height="20" as="geometry" />
        </mxCell>
        <mxCell id="sUQTUiR_hXJlY5Vw97WE-38" value="&lt;font style=&quot;font-size: 11px;&quot;&gt;9&lt;/font&gt;" style="text;html=1;strokeColor=none;fillColor=none;align=center;verticalAlign=middle;whiteSpace=wrap;rounded=0;fontSize=11;fontColor=#FFFFFF;" vertex="1" parent="sUQTUiR_hXJlY5Vw97WE-36">
          <mxGeometry x="5" y="6.75" width="10" height="8.5" as="geometry" />
        </mxCell>
        <mxCell id="sUQTUiR_hXJlY5Vw97WE-39" value="&lt;font style=&quot;font-size: 9px;&quot;&gt;对补全建议的代码进行处理：&lt;br&gt;- 明显的语法bug进行修复或删除&lt;br&gt;- 与光标后重复的代码进行剔除&lt;br&gt;- 处理缩进&lt;br&gt;- 行中补全时，与已有代码做diff。&lt;br&gt;展示补全建议的代码&lt;br&gt;&lt;/font&gt;" style="text;html=1;strokeColor=none;fillColor=none;align=left;verticalAlign=top;whiteSpace=wrap;rounded=0;fontSize=10;fontColor=#000000;" vertex="1" parent="1">
          <mxGeometry x="62" y="481" width="178" height="88" as="geometry" />
        </mxCell>
        <mxCell id="sUQTUiR_hXJlY5Vw97WE-40" style="edgeStyle=orthogonalEdgeStyle;rounded=0;orthogonalLoop=1;jettySize=auto;html=1;exitX=0.5;exitY=1;exitDx=0;exitDy=0;entryX=1;entryY=0.25;entryDx=0;entryDy=0;fontSize=10;fontColor=#000000;" edge="1" parent="1" source="sUQTUiR_hXJlY5Vw97WE-41" target="sUQTUiR_hXJlY5Vw97WE-30">
          <mxGeometry relative="1" as="geometry" />
        </mxCell>
        <mxCell id="sUQTUiR_hXJlY5Vw97WE-41" value="" style="rounded=1;whiteSpace=wrap;html=1;shadow=0;glass=0;labelBackgroundColor=#ffffff;sketch=0;strokeColor=#CCCCCC;strokeWidth=1;fontSize=10;fillColor=#7583FE;arcSize=1;" vertex="1" parent="1">
          <mxGeometry x="590" y="160" width="210" height="170" as="geometry" />
        </mxCell>
        <mxCell id="sUQTUiR_hXJlY5Vw97WE-42" value="知识库" style="text;html=1;align=left;verticalAlign=middle;whiteSpace=wrap;rounded=0;fontSize=10;fontColor=#FFFFFF;" vertex="1" parent="1">
          <mxGeometry x="600" y="170" width="80" height="20" as="geometry" />
        </mxCell>
        <mxCell id="sUQTUiR_hXJlY5Vw97WE-43" value="" style="rounded=0;whiteSpace=wrap;html=1;shadow=0;glass=0;labelBackgroundColor=#ffffff;sketch=0;strokeWidth=1;fontSize=10;fillColor=#6B78F8;fontColor=#333333;strokeColor=none;" vertex="1" parent="1">
          <mxGeometry x="600" y="202" width="190" height="42" as="geometry" />
        </mxCell>
        <mxCell id="sUQTUiR_hXJlY5Vw97WE-44" value="" style="group" vertex="1" connectable="0" parent="1">
          <mxGeometry x="604" y="209" width="20" height="20" as="geometry" />
        </mxCell>
        <mxCell id="sUQTUiR_hXJlY5Vw97WE-45" value="" style="ellipse;whiteSpace=wrap;html=1;aspect=fixed;rounded=1;shadow=0;glass=0;labelBackgroundColor=#ffffff;sketch=0;strokeColor=none;strokeWidth=1;fontSize=10;fillColor=#FFFFFF;" vertex="1" parent="sUQTUiR_hXJlY5Vw97WE-44">
          <mxGeometry width="20" height="20" as="geometry" />
        </mxCell>
        <mxCell id="sUQTUiR_hXJlY5Vw97WE-46" value="&lt;font style=&quot;font-size: 11px;&quot;&gt;4&lt;/font&gt;" style="text;html=1;strokeColor=none;fillColor=none;align=center;verticalAlign=middle;whiteSpace=wrap;rounded=0;fontSize=11;fontColor=#000000;" vertex="1" parent="sUQTUiR_hXJlY5Vw97WE-44">
          <mxGeometry x="5" y="6.75" width="10" height="8.5" as="geometry" />
        </mxCell>
        <mxCell id="sUQTUiR_hXJlY5Vw97WE-47" value="&lt;font style=&quot;font-size: 9px;&quot;&gt;将查询内容Embedding得到向量，去向量库查询匹配最高的前N条数据&lt;br&gt;&lt;/font&gt;" style="text;html=1;strokeColor=none;fillColor=none;align=left;verticalAlign=top;whiteSpace=wrap;rounded=0;fontSize=10;fontColor=#FFFFFF;" vertex="1" parent="1">
          <mxGeometry x="627" y="203" width="153" height="24" as="geometry" />
        </mxCell>
        <mxCell id="sUQTUiR_hXJlY5Vw97WE-48" value="" style="rounded=0;whiteSpace=wrap;html=1;shadow=0;glass=0;labelBackgroundColor=#ffffff;sketch=0;strokeWidth=1;fontSize=10;fillColor=#6B78F8;fontColor=#333333;strokeColor=none;" vertex="1" parent="1">
          <mxGeometry x="600" y="270" width="190" height="42" as="geometry" />
        </mxCell>
        <mxCell id="sUQTUiR_hXJlY5Vw97WE-49" value="" style="group" vertex="1" connectable="0" parent="1">
          <mxGeometry x="604" y="277" width="20" height="20" as="geometry" />
        </mxCell>
        <mxCell id="sUQTUiR_hXJlY5Vw97WE-50" value="" style="ellipse;whiteSpace=wrap;html=1;aspect=fixed;rounded=1;shadow=0;glass=0;labelBackgroundColor=#ffffff;sketch=0;strokeColor=none;strokeWidth=1;fontSize=10;fillColor=#FFFFFF;" vertex="1" parent="sUQTUiR_hXJlY5Vw97WE-49">
          <mxGeometry width="20" height="20" as="geometry" />
        </mxCell>
        <mxCell id="sUQTUiR_hXJlY5Vw97WE-51" value="&lt;font style=&quot;font-size: 11px;&quot;&gt;5&lt;/font&gt;" style="text;html=1;strokeColor=none;fillColor=none;align=center;verticalAlign=middle;whiteSpace=wrap;rounded=0;fontSize=11;fontColor=#000000;" vertex="1" parent="sUQTUiR_hXJlY5Vw97WE-49">
          <mxGeometry x="5" y="6.75" width="10" height="8.5" as="geometry" />
        </mxCell>
        <mxCell id="sUQTUiR_hXJlY5Vw97WE-52" value="&lt;font style=&quot;font-size: 9px;&quot;&gt;调用ReRank模型进行重排序，返回匹配度最高的内容&lt;br&gt;&lt;/font&gt;" style="text;html=1;strokeColor=none;fillColor=none;align=left;verticalAlign=top;whiteSpace=wrap;rounded=0;fontSize=10;fontColor=#FFFFFF;" vertex="1" parent="1">
          <mxGeometry x="627" y="271" width="153" height="36" as="geometry" />
        </mxCell>
        <mxCell id="sUQTUiR_hXJlY5Vw97WE-53" style="edgeStyle=orthogonalEdgeStyle;rounded=0;orthogonalLoop=1;jettySize=auto;html=1;exitX=1;exitY=0.5;exitDx=0;exitDy=0;entryX=0.048;entryY=0.285;entryDx=0;entryDy=0;entryPerimeter=0;fontSize=10;fontColor=#000000;" edge="1" parent="1" source="sUQTUiR_hXJlY5Vw97WE-16" target="sUQTUiR_hXJlY5Vw97WE-41">
          <mxGeometry relative="1" as="geometry" />
        </mxCell>
        <mxCell id="sUQTUiR_hXJlY5Vw97WE-54" style="edgeStyle=orthogonalEdgeStyle;rounded=0;orthogonalLoop=1;jettySize=auto;html=1;fontSize=10;fontColor=#000000;exitX=1;exitY=0.131;exitDx=0;exitDy=0;exitPerimeter=0;" edge="1" parent="1" source="sUQTUiR_hXJlY5Vw97WE-3">
          <mxGeometry relative="1" as="geometry">
            <mxPoint x="254" y="210" as="sourcePoint" />
            <mxPoint x="370" y="210" as="targetPoint" />
            <Array as="points">
              <mxPoint x="370" y="210" />
            </Array>
          </mxGeometry>
        </mxCell>
        <mxCell id="sUQTUiR_hXJlY5Vw97WE-55" style="edgeStyle=orthogonalEdgeStyle;rounded=0;orthogonalLoop=1;jettySize=auto;html=1;exitX=0;exitY=0.5;exitDx=0;exitDy=0;entryX=1;entryY=0.25;entryDx=0;entryDy=0;fontSize=10;fontColor=#000000;" edge="1" parent="1" source="sUQTUiR_hXJlY5Vw97WE-56" target="sUQTUiR_hXJlY5Vw97WE-35">
          <mxGeometry relative="1" as="geometry" />
        </mxCell>
        <mxCell id="sUQTUiR_hXJlY5Vw97WE-56" value="" style="rounded=0;whiteSpace=wrap;html=1;shadow=0;glass=0;labelBackgroundColor=#ffffff;sketch=0;strokeWidth=1;fontSize=10;fillColor=#6B78F8;fontColor=#333333;strokeColor=none;" vertex="1" parent="1">
          <mxGeometry x="370" y="484.5" width="190" height="35" as="geometry" />
        </mxCell>
        <mxCell id="sUQTUiR_hXJlY5Vw97WE-57" value="" style="group" vertex="1" connectable="0" parent="1">
          <mxGeometry x="374" y="491.5" width="20" height="20" as="geometry" />
        </mxCell>
        <mxCell id="sUQTUiR_hXJlY5Vw97WE-58" value="" style="ellipse;whiteSpace=wrap;html=1;aspect=fixed;rounded=1;shadow=0;glass=0;labelBackgroundColor=#ffffff;sketch=0;strokeColor=none;strokeWidth=1;fontSize=10;fillColor=#FFFFFF;" vertex="1" parent="sUQTUiR_hXJlY5Vw97WE-57">
          <mxGeometry width="20" height="20" as="geometry" />
        </mxCell>
        <mxCell id="sUQTUiR_hXJlY5Vw97WE-59" value="&lt;font style=&quot;font-size: 11px;&quot;&gt;8&lt;/font&gt;" style="text;html=1;strokeColor=none;fillColor=none;align=center;verticalAlign=middle;whiteSpace=wrap;rounded=0;fontSize=11;fontColor=#000000;" vertex="1" parent="sUQTUiR_hXJlY5Vw97WE-57">
          <mxGeometry x="5" y="6.75" width="10" height="8.5" as="geometry" />
        </mxCell>
        <mxCell id="sUQTUiR_hXJlY5Vw97WE-60" value="&lt;font style=&quot;font-size: 9px;&quot;&gt;组装补全建议&lt;br&gt;&lt;/font&gt;" style="text;html=1;strokeColor=none;fillColor=none;align=left;verticalAlign=top;whiteSpace=wrap;rounded=0;fontSize=10;fontColor=#FFFFFF;" vertex="1" parent="1">
          <mxGeometry x="397" y="489.5" width="153" height="28" as="geometry" />
        </mxCell>
      </root>
    </mxGraphModel>
  </diagram>
</mxfile>
